<svg width="24" height="25" fill="none" xmlns="http://www.w3.org/2000/svg"><path d="M23.672 24.36a.516.516 0 01-.211.093.464.464 0 01-.352.024.44.44 0 01-.14-.024l-7.219-2.906-7.195 2.883H8.53v.023h-.023a.44.44 0 01-.14.024.261.261 0 01-.118.023.443.443 0 01-.14-.023.384.384 0 01-.118-.024H7.97v-.023h-.024L.47 21.453a.88.88 0 01-.352-.281A.78.78 0 010 20.75v-18a.82.82 0 01.07-.328.573.573 0 01.211-.258.604.604 0 01.305-.14.67.67 0 01.352 0l3 .75a.636.636 0 01.445.351c.11.172.14.36.094.563a.71.71 0 01-.352.468.774.774 0 01-.563.07L1.5 3.712v16.523l6 2.414V17.75c0-.203.07-.375.21-.516A.74.74 0 018.25 17a.67.67 0 01.516.234.67.67 0 01.234.516v4.898l6-2.414V17.75c0-.203.07-.375.21-.516a.741.741 0 01.54-.234.67.67 0 01.516.234.67.67 0 01.234.516v2.484l6 2.414V6.336l-2.438-.61a.728.728 0 01-.468-.328.847.847 0 01-.07-.585.647.647 0 01.328-.446.778.778 0 01.585-.094l3 .75a.78.78 0 01.399.282.65.65 0 01.164.445v18a.696.696 0 01-.094.352.535.535 0 01-.234.257zm-11.18-6.047a.931.931 0 01-.234.14.687.687 0 01-.258.047.687.687 0 01-.258-.047.931.931 0 01-.234-.14c-.063-.047-.422-.383-1.078-1.008-.657-.64-1.375-1.47-2.157-2.485a20.604 20.604 0 01-2.085-3.468 9.38 9.38 0 01-.938-4.079c0-.921.172-1.796.516-2.625a6.9 6.9 0 011.453-2.156A7.28 7.28 0 019.375 1.04 6.416 6.416 0 0112 .5c.938 0 1.813.18 2.625.54a6.958 6.958 0 012.133 1.452 6.405 6.405 0 011.453 2.156c.36.829.539 1.704.539 2.625a9.38 9.38 0 01-.938 4.079 19.68 19.68 0 01-2.109 3.468c-.765 1.016-1.476 1.844-2.133 2.485-.656.625-1.015.96-1.078 1.008zM12 2c-.719 0-1.398.14-2.04.422-.64.265-1.202.64-1.687 1.125a5.695 5.695 0 00-1.125 1.687 5.27 5.27 0 00-.398 2.04 7.8 7.8 0 00.61 3c.421.984.913 1.906 1.476 2.765a19.411 19.411 0 001.758 2.227c.594.64 1.062 1.125 1.406 1.453.344-.328.813-.813 1.406-1.453a19.313 19.313 0 001.735-2.25 14.867 14.867 0 001.476-2.743 7.55 7.55 0 00.633-3c0-.718-.14-1.398-.422-2.039a5.152 5.152 0 00-1.125-1.687 4.898 4.898 0 00-1.664-1.125A5.017 5.017 0 0012 2zM9 7.297c0-.828.29-1.531.867-2.11.594-.593 1.305-.89 2.133-.89.828 0 1.531.297 2.11.89.593.579.89 1.282.89 2.11 0 .828-.297 1.539-.89 2.133a2.871 2.871 0 01-2.11.867 2.95 2.95 0 01-2.133-.867A2.95 2.95 0 019 7.297zm4.5 0c0-.406-.148-.758-.445-1.055A1.442 1.442 0 0012 5.797c-.406 0-.758.148-1.055.445a1.441 1.441 0 00-.445 1.055 1.482 1.482 0 001.5 1.5 1.482 1.482 0 001.5-1.5z" fill="#BBB"/></svg>