<svg width="664" height="1216" fill="none" xmlns="http://www.w3.org/2000/svg"><path fill-rule="evenodd" clip-rule="evenodd" d="M22.914 1.493c-.005-.001-.007-.002.086-.493.092-.491.095-.49.1-.49l.022.004.086.017.341.066a435.632 435.632 0 016.595 1.354c4.596.98 11.338 2.478 19.922 4.552 17.168 4.148 41.706 10.598 71.193 19.81C180.23 44.733 259.004 74.2 338.203 118.38 496.588 206.735 656.772 353.998 663.5 589.527v.021c-3.587 272.977-169.254 429.482-333.952 517.712-82.346 44.11-164.464 71.17-225.992 87.2-30.765 8.02-56.385 13.27-74.315 16.53a680.72 680.72 0 01-20.811 3.47c-2.401.36-4.243.62-5.484.79-.62.08-1.092.15-1.407.19-.158.02-.278.03-.357.04l-.09.01-.023.01c-.006 0-.008 0-.069-.5-.06-.5-.058-.5-.054-.5h.022l.09-.01c.078-.01.196-.03.353-.05l1.4-.18c1.238-.17 3.074-.43 5.47-.79 4.794-.71 11.827-1.84 20.781-3.46 17.909-3.26 43.504-8.51 74.242-16.52 61.477-16.01 143.515-43.05 225.772-87.11 164.509-88.13 329.839-244.359 333.424-516.834-6.718-235.007-166.532-382.011-324.784-470.292-79.122-44.137-157.828-73.58-216.756-91.987-29.463-9.204-53.98-15.648-71.129-19.792A762.437 762.437 0 0029.935 2.93a437.972 437.972 0 00-6.576-1.35l-.339-.066-.085-.016-.021-.004z" fill="#29A0EC"/></svg>