<svg width="528" height="528" fill="none" xmlns="http://www.w3.org/2000/svg"><path fill-rule="evenodd" clip-rule="evenodd" d="M264 6h-.493l-.012-6a270.918 270.918 0 011.01 0l-.011 6H264zm-6.398.078l-.981.025-.169-5.997c.334-.01.669-.018 1.004-.026l.146 5.998zm13.778.025l-.981-.025.146-5.998c.334.008.669.016 1.003.026l-.168 5.997zm-20.626.231l-.984.052-.326-5.991c.335-.019.671-.036 1.007-.053l.303 5.992zm27.477.052l-.985-.052.303-5.992c.336.017.672.034 1.007.053l-.325 5.99zm-34.35.387c-.326.025-.652.05-.978.077l-.484-5.98 1.001-.08.461 5.983zm41.216.077l-.978-.077.461-5.983 1.001.08-.484 5.98zm-48.044.54l-.98.104-.642-5.966 1.003-.106.619 5.968zm54.874.104l-.98-.104.619-5.968 1.003.106-.642 5.966zm-61.709.697l-.972.13-.8-5.947c.331-.045.662-.089.994-.132l.778 5.95zm68.536.13l-.972-.13.778-5.949c.332.043.663.087.994.132l-.8 5.946zm-75.326.85c-.324.051-.648.103-.971.156l-.959-5.923.994-.16.936 5.927zm82.116.156l-.972-.156.936-5.926c.331.052.663.105.994.159l-.958 5.923zm-88.893 1.008l-.963.18-1.117-5.895.986-.185 1.094 5.9zm95.661.18l-.963-.18 1.094-5.9.986.185-1.117 5.895zM209.92 11.677c-.321.068-.641.137-.962.207l-1.274-5.864.984-.211 1.252 5.868zm109.122.207c-.32-.07-.641-.139-.962-.207l1.252-5.868.984.211-1.274 5.864zM203.218 13.2l-.951.232-1.431-5.827c.324-.08.649-.159.974-.237l1.408 5.832zm122.515.232l-.951-.232 1.408-5.832c.325.078.65.157.974.237l-1.431 5.827zm-129.167 1.47c-.317.085-.633.17-.949.257l-1.586-5.786c.323-.089.647-.177.97-.264l1.565 5.792zm135.817.257l-.948-.258 1.564-5.792c.323.087.647.175.97.264l-1.586 5.786zm-142.424 1.622c-.313.093-.625.187-.938.282l-1.741-5.742.96-.289 1.719 5.749zm149.02.282c-.313-.095-.625-.189-.938-.282l1.719-5.749c.32.096.64.192.96.29l-1.741 5.741zm-155.575 1.774l-.932.308-1.895-5.692.955-.316 1.872 5.7zm162.124.308l-.932-.308 1.872-5.7c.319.104.637.21.955.316l-1.895 5.692zm-168.617 1.922l-.921.333-2.047-5.64c.314-.114.629-.228.943-.34l2.025 5.647zm175.099.333l-.921-.333 2.025-5.648.943.34-2.047 5.64zm-181.536 2.073l-.914.358-2.197-5.583c.311-.123.623-.245.935-.366l2.176 5.591zm187.966.358l-.914-.358 2.176-5.591c.312.121.624.243.935.366l-2.197 5.583zm6.352 2.599a228.89 228.89 0 00-.904-.382l2.325-5.532.925.391-2.346 5.523zm-200.68-.382c-.302.126-.603.254-.904.382l-2.346-5.523.925-.39 2.325 5.53zm206.97 3.154l-.893-.406 2.472-5.467.914.415-2.493 5.458zm-213.271-.406l-.893.406-2.493-5.458.914-.415 2.472 5.467zm219.478 3.342a225.85 225.85 0 00-.884-.43l2.618-5.4.904.44-2.638 5.39zm-225.694-.43c-.295.142-.59.286-.884.43l-2.638-5.39.904-.44 2.618 5.4zm231.824 3.533l-.87-.453 2.761-5.327.89.464-2.781 5.316zm-237.968-.453c-.291.15-.581.302-.87.453l-2.782-5.316.891-.464 2.761 5.327zm244.011 3.718c-.286-.16-.572-.319-.859-.477l2.902-5.252.879.488-2.922 5.24zm-250.065-.477c-.287.158-.573.317-.859.477l-2.922-5.24c.293-.164.585-.326.879-.488l2.902 5.251zm256.02 3.902l-.845-.499 3.041-5.172.864.51-3.06 5.16zm-261.989-.499l-.845.499-3.06-5.16c.287-.172.575-.342.864-.511l3.041 5.172zm267.85 4.081l-.832-.521 3.178-5.09.295.185c.185.116.371.232.556.35l-3.197 5.076zm-273.724-.521c-.278.173-.555.347-.832.522l-3.197-5.078.851-.533 3.178 5.089zm279.025 3.95l-.355-.235 3.312-5.003c.279.184.558.37.836.555l-3.331 4.99-.462-.307zm-284.803-.235c-.273.18-.545.362-.817.543l-3.331-4.99.836-.556 3.312 5.003zm290.929 4.433l-.803-.565 3.444-4.913.51.358.311.22-3.462 4.9zm-296.607-.565l-.803.565-3.462-4.9c.273-.194.547-.386.821-.578l3.444 4.913zm301.692 4.251l-.316-.235 3.572-4.82c.269.2.538.399.806.6l-3.591 4.806-.471-.35zm-307.264-.235l-.787.586-3.591-4.807.805-.599 3.573 4.82zm313.184 4.771c-.256-.203-.514-.405-.771-.607l3.699-4.723c.133.104.267.208.399.313l.391.307-3.718 4.71zm-318.649-.606c-.258.201-.515.404-.772.606l-3.717-4.71.79-.62 3.699 4.724zm323.984 4.933c-.251-.21-.503-.419-.755-.627l3.823-4.625.773.642-3.841 4.61zM99.71 65.062c-.252.208-.504.417-.755.627l-3.841-4.61.773-.642 3.823 4.625zm334.555 5.094l-.738-.647 3.944-4.52.614.536.142.125-3.962 4.506zm-339.792-.647l-.738.647-3.962-4.506.756-.662 3.944 4.522zm344.891 5.25l-.721-.666 4.063-4.415.737.681-4.079 4.4zm-350.007-.665l-.721.665-4.08-4.4.738-.68 4.063 4.415zm354.983 5.402c-.234-.228-.468-.457-.703-.684l4.178-4.307.719.7-4.194 4.291zm-359.977-.684l-.703.684-4.194-4.29c.24-.234.479-.468.72-.7l4.177 4.306zm364.825 5.551l-.684-.703 4.29-4.194c.234.24.468.479.701.72l-4.307 4.177zM79.496 83.66c-.228.234-.457.468-.684.703l-4.307-4.178.7-.72 4.291 4.195zm374.411 5.697l-.666-.721 4.4-4.08.681.738-4.415 4.063zm-379.148-.721l-.666.72-4.415-4.062.681-.737 4.4 4.079zm383.731 5.837c-.215-.246-.43-.493-.646-.738l4.506-3.962.662.756-4.522 3.944zm-388.334-.738l-.647.738-4.52-3.944.66-.756 4.507 3.962zm392.782 5.975c-.208-.252-.417-.504-.627-.755l4.61-3.841.642.773-4.625 3.823zm-397.25-.755l-.627.755-4.624-3.823.642-.773 4.61 3.84zM466.9 104.62l-.261-.332 4.71-3.717.62.79-4.724 3.699-.345-.44zm-405.537-.331c-.203.256-.405.514-.607.771l-4.723-3.699.62-.79 4.71 3.718zm410.047 6.236l-.586-.787 4.807-3.591.599.805-4.82 3.573zm-414.232-.787l-.586.787-4.82-3.572c.2-.269.399-.538.6-.806l4.806 3.591zm418.248 6.359l-.565-.803 4.9-3.462c.194.273.386.547.578.821l-4.913 3.444zm-422.285-.803l-.565.803-4.913-3.444c.192-.274.384-.548.578-.821l4.9 3.462zm426.153 6.481l-.543-.817 4.991-3.331.555.836-5.003 3.312zm-430.043-.817l-.543.817-5.003-3.312c.184-.279.37-.558.555-.836l4.99 3.331zm433.758 6.595c-.173-.278-.347-.555-.522-.832l5.078-3.197.534.851-5.09 3.178zm-437.495-.832l-.521.832-5.09-3.178.534-.851 5.077 3.197zm441.055 6.706l-.499-.845 5.161-3.06c.17.287.341.575.51.864l-5.172 3.041zm-444.637-.845l-.499.845-5.172-3.041.51-.864 5.16 3.06zm447.755 6.3l-.192-.345 5.241-2.922.488.879-5.252 2.902-.285-.514zm-451.18-.345c-.16.286-.319.572-.477.859l-5.252-2.902.488-.879 5.24 2.922zm454.706 6.913l-.453-.87 5.316-2.782.464.891-5.327 2.761zm-457.97-.87c-.152.289-.303.579-.454.87l-5.327-2.761.464-.89 5.316 2.781zm461.051 7.014l-.431-.884 5.389-2.638.441.904-5.399 2.618zm-464.155-.884c-.144.294-.288.589-.43.884l-5.4-2.618.44-.904 5.39 2.638zm466.853 6.629a54.16 54.16 0 00-.193-.422l5.458-2.493.415.914-5.467 2.472-.213-.471zm-469.79-.422l-.405.893-5.467-2.472.415-.914 5.458 2.493zm472.751 7.194c-.126-.302-.254-.603-.382-.904l5.523-2.346.391.925-5.532 2.325zm-475.522-.904c-.128.301-.256.602-.382.904l-5.532-2.325.391-.925 5.523 2.346zm-2.599 6.352l-.358.914-5.591-2.176c.121-.312.243-.624.366-.935l5.583 2.197zm480.696.914l-.358-.914 5.583-2.197c.123.311.245.623.366.935l-5.591 2.176zM21.4 175.99l-.333.921-5.648-2.025.34-.943 5.64 2.047zm485.361.444l-.161-.444 5.64-2.047.341.943-5.648 2.025a91.106 91.106 0 01-.172-.477zm-487.615 6.038c-.104.311-.207.621-.309.932l-5.7-1.872c.104-.319.21-.637.316-.955l5.692 1.895zm490.017.932l-.308-.932 5.692-1.895.316.955-5.7 1.872zm-492.1 5.617c-.095.313-.189.625-.282.938l-5.749-1.719c.096-.32.192-.64.29-.96l5.741 1.741zm494.156.938c-.093-.313-.187-.625-.282-.938l5.742-1.741.289.96-5.749 1.719zm-496.06 5.658l-.258.948-5.792-1.564c.087-.323.175-.647.264-.97l5.786 1.586zm497.94.949l-.258-.949 5.786-1.586.168.614.096.356-5.792 1.565zm-499.667 5.701l-.232.951-5.832-1.408c.078-.325.157-.65.237-.974l5.827 1.431zm501.368.951l-.232-.951 5.827-1.431a138.466 138.466 0 01.237.974l-5.832 1.408zm-502.916 5.74c-.07.32-.139.641-.207.962l-5.868-1.252.211-.984 5.864 1.274zm504.439.962l-.206-.962 5.863-1.274.211.984-5.868 1.252zm-505.808 5.768l-.18.963-5.9-1.094.185-.986 5.895 1.117zm507.15.963l-.18-.963 5.895-1.117.185.986-5.9 1.094zM9.327 222.456l-.156.972-5.926-.936c.052-.331.105-.663.159-.994l5.923.958zm509.417.441a57.751 57.751 0 00-.071-.44l5.923-.959c.054.331.107.663.159.994l-5.926.936a97.623 97.623 0 00-.085-.531zM8.32 229.246l-.129.972-5.949-.778c.043-.332.087-.663.132-.994l5.946.8zm511.489.972l-.129-.972 5.946-.8.073.546.059.448-5.949.778zM7.494 236.073l-.104.98-5.968-.619.106-1.003 5.966.642zm513.116.98l-.104-.98 5.966-.642.106 1.003-5.968.619zm-513.76 5.85l-.077.978-5.983-.461.08-1.001 5.98.484zm514.377.978l-.077-.978 5.98-.484.038.464.042.537-5.983.461zM6.386 249.769l-.052.985-5.992-.303c.017-.336.034-.672.053-1.007l5.99.325zm515.28.985l-.052-.984 5.991-.326c.019.335.036.671.053 1.007l-5.992.303zM6.103 256.62l-.025.981-5.998-.146c.008-.334.016-.669.026-1.003l5.997.168zm515.807.505l-.013-.504 5.997-.169c.01.334.018.669.026 1.004l-5.998.146-.012-.477zM6 263.506a262.405 262.405 0 000 .987l-6 .012a270.918 270.918 0 010-1.01l6 .011zm516 .344v-.343l6-.012v1.01l-6-.011v-.644zM6.078 270.398l.025.981-5.997.169c-.01-.334-.018-.669-.026-1.004l5.998-.146zm515.818.982c.01-.327.018-.654.026-.981l5.998.146c-.008.334-.016.669-.026 1.003l-5.998-.168zM6.334 277.246l.052.984-5.991.326c-.019-.335-.036-.671-.053-1.007l5.992-.303zm515.308.469l.024-.469 5.992.303a84.34 84.34 0 01-.053 1.007l-5.991-.325.028-.516zm-514.87 6.404l.078.978-5.98.484-.08-1.001 5.983-.461zm514.378.978l.077-.978 5.983.461-.08 1.001-5.98-.484zm-513.76 5.85l.104.98-5.966.642-.106-1.003 5.968-.619zm513.116.98l.104-.98 5.968.619-.061.576-.045.427-5.966-.642zM8.191 297.782l.13.972-5.947.8c-.045-.331-.089-.662-.132-.994l5.95-.778zm511.489.972l.129-.972 5.949.778c-.043.332-.087.663-.132.994l-5.946-.8zM9.171 304.572c.051.324.103.648.156.971l-5.923.959-.16-.994 5.927-.936zm509.502.972l.156-.972 5.926.936c-.052.331-.105.663-.159.994l-5.923-.958zm-508.338 5.805l.18.963-5.895 1.117-.185-.986 5.9-1.094zm507.15.963l.18-.963 5.9 1.094-.093.498-.092.488-5.895-1.117zM11.676 318.08l.207.962-5.863 1.274a283.15 283.15 0 01-.211-.984l5.868-1.252zm504.44.962c.07-.32.139-.641.207-.962l5.868 1.252a432.358 432.358 0 00-.211.984l-5.864-1.274zM13.2 324.782l.232.951-5.827 1.431c-.08-.324-.159-.649-.237-.974l5.832-1.408zm501.368.951l.232-.951 5.832 1.408c-.078.325-.157.65-.237.974l-5.827-1.431zm-499.667 5.701l.258.949-5.786 1.586a174.56 174.56 0 01-.264-.97l5.792-1.565zm497.94.949l.258-.948 5.792 1.564c-.087.323-.175.647-.264.97l-5.786-1.586zm-496.06 5.658c.093.313.187.625.282.938l-5.742 1.741-.289-.96 5.749-1.719zm494.156.938c.095-.313.189-.625.282-.938l5.749 1.719-.128.425-.161.535-5.742-1.741zm-492.1 5.617l.308.932-5.692 1.895a232.05 232.05 0 01-.316-.955l5.7-1.872zm490.017.932c.104-.311.207-.621.309-.932l5.7 1.872c-.067.203-.133.406-.201.608l-.115.347-5.693-1.895zm-487.787 5.561l.333.921-5.64 2.047c-.114-.314-.228-.629-.34-.943l5.647-2.025zm485.726.387l.14-.387 5.648 2.025-.201.558-.14.385-5.64-2.047.193-.534zm-483.32 6.05l.358.914-5.583 2.197a226.77 226.77 0 01-.366-.935l5.591-2.176zm480.696.914l.358-.914 5.591 2.176c-.121.312-.243.624-.366.935l-5.583-2.197zm-478.121 5.448c.126.302.254.603.382.904l-5.523 2.346-.39-.925 5.53-2.325zm475.522.904c.128-.301.256-.602.382-.904l5.532 2.325-.391.925-5.523-2.346zm-472.774 5.397l.406.893-5.458 2.493-.415-.914 5.467-2.472zm470.268.309l.14-.309 5.467 2.472-.415.914-5.458-2.493.266-.584zm-3.202 6.791l.431-.884 5.399 2.618-.441.904-5.389-2.638zm-464.155-.884l.43.884-5.388 2.638-.228-.466-.213-.438 5.4-2.618zm461.052 7.014l.453-.87 5.327 2.761-.464.89-5.316-2.781zm-457.753-.45l.235.45-5.316 2.782-.464-.891 5.327-2.761.218.42zm454.488 6.493c.16-.286.319-.572.477-.859l5.252 2.902-.309.556-.179.323-5.241-2.922zm-451.465-.859c.158.287.317.573.477.859l-5.24 2.922a150.82 150.82 0 01-.488-.879l5.251-2.902zm448.04 6.814l.499-.845 5.172 3.041-.51.864-5.161-3.06zm-444.637-.845l.499.845-5.16 3.06a93.29 93.29 0 01-.511-.864l5.172-3.041zm441.055 6.706l.521-.832 5.09 3.178-.534.851-5.077-3.197zm-437.495-.832c.173.278.347.555.522.832l-5.078 3.197-.533-.851 5.089-3.178zm433.758 6.595c.182-.272.362-.544.543-.817l5.003 3.312-.555.836-4.991-3.331zm-430.043-.817c.18.273.362.545.543.817l-4.99 3.331-.323-.484a82.657 82.657 0 01-.233-.352l5.003-3.312zm426.589 5.862l.129-.184 4.913 3.444-.389.554-.189.267-4.9-3.462.436-.619zm-422.721-.184l.565.803-4.9 3.462-.395-.56-.183-.261 4.913-3.444zm418.619 5.861l.215-.289 4.82 3.572-.599.806-4.807-3.591.371-.498zm-414.603-.289l.586.787-4.807 3.591-.599-.805 4.82-3.573zm410.047 6.236c.203-.256.405-.514.607-.771l4.723 3.699-.337.43-.283.36-4.71-3.718zm-405.882-.771c.201.258.404.515.606.772l-4.71 3.717-.62-.79 4.724-3.699zm401.555 6.106c.21-.251.419-.503.627-.755l4.625 3.823-.642.773-4.61-3.841zm-397.25-.755l.628.755-4.61 3.841a252.67 252.67 0 01-.642-.773l4.625-3.823zm392.783 5.975l.647-.738 4.521 3.944-.662.756-4.506-3.962zm-388.334-.738c.215.246.43.493.646.738l-4.506 3.962c-.221-.252-.442-.503-.662-.756l4.522-3.944zm383.731 5.837l.666-.721 4.415 4.063-.681.737-4.4-4.079zm-379.147-.721l.665.721-4.4 4.079-.68-.737 4.415-4.063zm374.823 5.273l.271-.279 4.307 4.178-.701.719-4.29-4.194.413-.424zm-370.105-.279l.684.703-4.29 4.194a157.54 157.54 0 01-.7-.719l4.306-4.178zm364.825 5.551l.703-.684 4.194 4.29-.395.385-.324.316-4.178-4.307zm-359.977-.684c.234.228.468.457.703.684l-4.178 4.307-.72-.701 4.195-4.29zm354.983 5.403l.721-.666 4.079 4.4-.737.681-4.063-4.415zm-350.007-.666l.72.666-4.062 4.415-.737-.681 4.079-4.4zm344.891 5.249c.246-.215.493-.43.738-.646l3.962 4.506c-.252.221-.503.442-.756.662l-3.944-4.522zm-339.792-.646l.738.647-3.944 4.521-.756-.662 3.962-4.506zm334.555 5.094c.252-.208.504-.417.755-.627l3.841 4.61-.773.642-3.823-4.625zm-329.335-.627c.251.21.503.419.755.627l-3.823 4.625-.773-.642 3.84-4.61zm323.984 4.933c.258-.201.515-.403.772-.606l3.717 4.71-.79.62-3.699-4.724zm-318.649-.606c.256.203.514.405.771.607l-3.699 4.723-.79-.62 3.718-4.71zm313.184 4.771l.787-.586 3.591 4.807-.805.599-3.573-4.82zm-307.245-.221l.297.221-3.572 4.82-.806-.599 3.591-4.807.49.365zm301.673 4.237l.803-.565 3.462 4.9c-.273.194-.547.386-.821.578l-3.444-4.913zm-296.105-.211l.301.211-3.444 4.913-.44-.309a88.758 88.758 0 01-.381-.269l3.462-4.9.502.354zm290.427 4.079l.817-.543 3.331 4.991-.836.555-3.312-5.003zm-285.265-.543c.272.182.544.362.817.543l-3.312 5.003-.836-.555 3.331-4.991zm279.487 4.258c.278-.173.555-.347.832-.522l3.197 5.078-.851.534-3.178-5.09zm-273.724-.521l.832.521-3.178 5.09-.851-.534 3.197-5.077zm267.85 4.081l.845-.499 3.06 5.161c-.287.17-.575.341-.864.51l-3.041-5.172zm-261.989-.499l.845.499-3.041 5.172-.864-.51 3.06-5.161zm256.02 3.902c.287-.158.573-.317.859-.477l2.922 5.241-.879.488-2.902-5.252zm-250.065-.477c.286.16.572.319.859.477l-2.902 5.252-.879-.488 2.922-5.241zm244.011 3.718l.87-.453 2.782 5.316-.891.464-2.761-5.327zm-237.968-.453l.87.453-2.761 5.327-.448-.233-.442-.231 2.781-5.316zm231.824 3.534l.884-.431 2.638 5.389-.548.267-.356.174-2.618-5.399zm-225.694-.431l.884.431-2.618 5.399a68.988 68.988 0 00-.473-.23l-.431-.211 2.638-5.389zm6.207 2.936l.893.406-2.472 5.467-.914-.415 2.493-5.458zm213.271.406l.893-.406 2.493 5.458-.914.415-2.472-5.467zm-5.931 2.593l.534-.227 2.346 5.523-.925.391-2.325-5.532.37-.155zm-201.05-.227c.301.128.602.256.904.382l-2.325 5.532-.925-.391 2.346-5.523zm6.352 2.599l.914.358-2.176 5.591a150.91 150.91 0 01-.935-.366l2.197-5.583zm187.966.358l.914-.358 2.197 5.583c-.311.123-.623.245-.935.366l-2.176-5.591zm-181.007 2.264l.392.142-2.025 5.648-.943-.341 2.047-5.64.529.191zm174.57.142l.921-.333 2.047 5.64-.943.341-2.025-5.648zm-168.617 1.921c.311.104.621.207.932.309l-1.872 5.7-.343-.113-.612-.203 1.895-5.693zm162.124.309l.932-.308 1.895 5.692-.955.316-1.872-5.7zm-155.575 1.774c.313.095.625.189.938.282l-1.719 5.749-.96-.289 1.741-5.742zm149.02.282c.313-.093.625-.187.938-.282l1.741 5.742-.96.289-1.719-5.749zm-142.424 1.622l.948.258-1.564 5.792a174.56 174.56 0 01-.97-.264l1.586-5.786zm135.817.258l.949-.258 1.586 5.786c-.323.089-.647.177-.97.264l-1.565-5.792zm-129.167 1.469l.951.232-1.408 5.832c-.325-.078-.65-.157-.974-.237l1.431-5.827zm122.515.232l.951-.232 1.431 5.827c-.324.08-.649.159-.974.237l-1.408-5.832zm-115.824 1.316c.32.07.641.139.962.207l-1.252 5.868a61.639 61.639 0 01-.588-.126l-.396-.085 1.274-5.864zm109.833.055l.251-.054 1.274 5.863-.984.211-1.252-5.868.711-.152zm-103.103 1.314l.963.18-1.094 5.9-.986-.185 1.117-5.895zm95.661.18l.963-.18 1.117 5.895-.986.185-1.094-5.9zm-88.46 1.078l.539.086-.936 5.926c-.331-.052-.663-.105-.994-.159l.958-5.923.433.07zm81.683.086c.324-.051.648-.103.971-.156l.959 5.923c-.331.054-.663.107-.994.159l-.936-5.926zm-74.659.94l.305.04-.778 5.949c-.332-.043-.663-.087-.994-.132l.8-5.946.667.089zm67.869.04l.972-.129.8 5.946c-.331.045-.662.089-.994.132l-.778-5.949zm-61.709.697l.98.104-.619 5.968-1.003-.106.642-5.966zm54.874.104l.98-.104.642 5.966-1.003.106-.619-5.968zm-47.64.572c.191.016.383.031.574.045l-.461 5.983-1.001-.08.484-5.98.404.032zm41.213.014l.577-.046.484 5.98-1.001.08-.461-5.983.401-.031zm-34.751.418l.985.052-.303 5.992c-.336-.017-.672-.034-1.007-.053l.325-5.991zm27.477.052l.984-.052.326 5.991c-.335.019-.671.036-1.007.053l-.303-5.992zm-20.177.243l.532.013-.146 5.998-.618-.015-.385-.011.168-5.998.449.013zm13.851 0l.459-.012.169 5.997c-.334.01-.669.018-1.004.026l-.146-5.998.522-.013zm-7.414.091h.987l.012 6h-1.01l.011-6z" fill="#C8E6D1"/><path fill-rule="evenodd" clip-rule="evenodd" d="M463 264c0 109.905-89.095 199-199 199S65 373.905 65 264 154.095 65 264 65s199 89.095 199 199zm-65 .5c0 73.73-59.77 133.5-133.5 133.5-73.73 0-133.5-59.77-133.5-133.5 0-73.73 59.77-133.5 133.5-133.5 73.73 0 133.5 59.77 133.5 133.5z" fill="#EBF3ED"/></svg>